<svg
  width="636px"
  height="812px"
  xmlns="http://www.w3.org/2000/svg"
  xmlns:xlink="http://www.w3.org/1999/xlink"
>
  <image href="./stratocaster.svg" />

  <style>

    g {
      fill: blue;
      stroke: magenta;
      stroke-width: 1.44px;
    }

  </style>

  <defs>
    <g id="knob">
      <circle r="36" opacity="0.5" fill="white" />
      <circle r="14" />
    </g>

    <circle id="screw" r="5.2" />

    <rect id="switch" width="10" height="24" rx="5" />

    <g id="pickup">
      <circle r="5.2" cy="26.16" />
      <circle r="5.2" cx="220.13" cy="26.16" />
      <rect x="9.5" width="201" height="52.07" rx="26.05" />
    </g>

    <g id="bracket">
      <use xlink:href="#knob" x="0" y="0" />
      <!-- <use xlink:href="#knob" x="124.6" y="0" /> -->
      <!-- <use xlink:href="#switch" x="8.88" y="48" />
      <use xlink:href="#switch" x="57.88" y="48" />
      <use xlink:href="#switch" x="106.88" y="48" /> -->
    </g>

  </defs>

  <g id="body">
    <g id="tunnels">
      <g id="ground" transform="translate(290, 587.5)">
        <line x1="0" y1="0" x2="30" y2="0" />
        <line x1="0" y1="18" x2="30" y2="18" />
      </g>
      <g id="jack" transform="translate(379, 645) rotate(-15)">
        <line x1="0" y1="0" x2="0" y2="150" />
        <line x1="18" y1="18" x2="18" y2="152" />
      </g>
    </g>
    <path
      d="M110.736,19.08 C92.808,63.864 60.336,101.304 18.576,125.496 C3.816,134.064 -13.968,120.456 -9.504,103.968 C3.096,57.384 30.888,16.344 69.48,-12.6 C74.016,-15.984 79.632,-18 85.68,-18 C100.584,-18 112.68,-5.904 112.68,9 C112.68,12.528 111.96,15.912 110.736,19.08 Z"
      transform="translate(421, 899) rotate(270)"
    />
  </g>

  <g id="pickguard">
    <path
      d="M573.205525,68.8061174 L573.205528,68.806137 C574.652749,79.4866476 575.300389,89.4179807 575.097159,97.4763942 C575.097,109.457777 573.565272,122.826089 570.469802,139.104595 C567.573558,154.340261 563.92634,169.117301 559.146889,184.365452 C555.083886,197.328857 550.507587,209.237272 543.263788,226.443971 C542.152984,229.082541 538.303198,238.161003 537.624342,239.769593 C531.973421,253.155978 526.772617,266.403744 521.786137,280.108035 C509.879886,312.830264 505.300393,331.86448 503.92476,356.781438 C502.968982,374.074568 503.365302,387.88534 505.943978,404.411087 C509.14158,424.895924 516.674349,447.681877 530.908427,482.371805 C534.379142,490.746085 538.395398,499.715879 543.732492,511.131881 C546.749678,517.585616 557.963483,541.190575 558.909863,543.194977 C573.018085,573.075729 583.147702,595.967684 593.445583,622.197722 C594.133825,623.950929 596.655664,630.357661 597.04289,631.342752 C598.551434,635.180447 599.771295,638.298919 600.978014,641.408717 C604.0921,649.433926 606.816743,656.632456 609.41078,663.740512 C615.142469,679.446207 619.911332,693.846274 623.778639,707.49564 C630.636231,731.698986 634.343,752.497726 634.343,769.589 C634.343,781.694683 629.793372,792.350444 622.053422,800.091471 C615.42156,806.722366 606.950706,810.589 599.411,810.589 C584.713472,810.589 570.958512,805.171508 557.699998,795.857817 C554.295132,793.466005 551.111671,790.953285 547.770077,788.097805 C546.331361,786.868383 542.06577,783.098453 541.348565,782.499284 C534.742267,776.979867 528.420119,771.591887 520.660449,764.897326 C521.143678,765.314226 506.589309,752.72598 502.831775,749.506884 C489.648274,738.212522 480.76,731.076194 471.915908,724.904397 C461.005966,717.290958 450.654679,711.606516 439.307513,707.157501 C422.202767,700.451371 401.909595,696.344122 373.407544,693.737079 C363.275915,692.809442 350.819902,692.406 334.764,692.406 C330.736042,692.406 326.732104,692.451914 322.503,692.548561 C322.503,690.27928 322.503,689.950326 322.503,684.962142 C322.503,678.76049 322.503,678.76049 322.503,671.697548 C322.503,666.923263 322.503,666.923263 322.503,662.415 C322.503,655.53668 316.929965,649.963 310.052,649.963 L119.65,649.963 C112.773374,649.963 107.199,655.538341 107.199,662.415 L107.199001,692.470353 C104.587414,692.642807 103.118782,692.689553 101.4024,692.680853 C101.167619,692.679663 101.047981,692.678689 100.521564,692.67401 C99.8781598,692.668292 99.5038313,692.666 99.038,692.666 C73.0229176,692.666 55.8314387,686.68951 39.4130365,670.592964 C12.6551449,644.360854 1.5,606.072069 1.5,558.268 C1.5,535.492586 5.56270017,511.730422 13.4239977,485.071858 C19.4457795,464.651303 25.9667173,447.093116 39.686412,412.769644 C55.6547196,372.820668 61.1575615,358.184832 67.1695467,337.816545 C75.5863989,309.300444 79.969,273.758484 79.969,241.565 C79.969,211.690558 77.9733774,187.818588 72.6878364,156.930666 C72.6300227,156.592697 72.2028328,154.016524 72.0306683,153.009029 C71.6842108,150.981583 71.3063843,148.882196 70.8389651,146.421685 C69.5882188,139.837713 67.8466434,131.475933 65.417029,120.573245 C65.3569283,120.303813 64.6811492,117.662214 64.5212038,117.024504 C63.9407706,114.710288 63.414462,112.495657 62.9140918,110.207221 C62.3141247,107.463281 61.8016616,104.833547 61.3954328,102.346593 C60.7460258,98.3708905 60.393,94.910968 60.393,92.096 C60.393,84.8452802 63.6398385,77.1972388 68.5295162,72.3085906 C72.3964702,68.4406633 78.7125693,66.123 85.409,66.123 C90.0718875,66.123 97.8612414,68.6174743 108.439523,73.1534013 C110.380242,73.9855743 112.404724,74.881978 114.551956,75.8567799 C115.457369,76.26782 132.124448,84.1250122 135.24504,85.3449121 C134.891668,110.78404 134.228,147.708709 134.228,150.043 C134.228,156.341327 136.160141,161.289133 139.678391,164.808497 C141.886407,167.015472 144.466947,168.520594 147.420351,169.300431 C161.960412,173.140451 192.686639,175.876 213.564,175.876 C235.900157,175.876 266.090311,173.292583 281.205678,169.300423 C284.120625,168.530158 286.82703,166.987081 289.008635,164.804472 C292.207181,161.605925 294.136255,157.213559 294.414737,151.976436 C297.447562,152.896781 307.590143,156.383134 315.537694,159.377885 C317.638907,160.169686 319.558715,160.911069 322.034398,161.88178 C322.242983,161.963583 322.242983,161.963583 322.451495,162.045417 C332.465557,165.976257 334.480989,166.752146 341.919648,169.465722 C358.705388,175.588955 372.019929,178.451 386.058,178.451 C397.755614,178.451 409.954621,176.392696 423.680269,172.00425 C447.122706,164.988339 466.347398,153.191611 482.632541,136.907565 C494.522124,125.017675 503.582837,111.863904 510.39958,97.2991013 C515.587838,86.2137544 519.386776,74.5617603 522.38574,61.4622748 C523.583631,56.2298818 524.634659,50.8734626 525.715971,44.6700858 C526.363858,40.9532264 528.503606,27.907248 528.284272,29.2221397 C528.802294,26.1166344 529.237385,23.6296312 529.672343,21.3226374 C531.614724,11.0145703 532.882457,7.00764957 535.647553,4.24255339 C537.478627,2.41147939 539.723204,1.5 542.548,1.5 C553.552958,1.5 569.125398,38.685767 573.205525,68.8061174 Z"
      fill-opacity="0.5"
      fill="#FFFFFF"
    />

    <use xlink:href="#knob" x="573" y="735" />
    <!-- <use xlink:href="#knob" x="370" y="595" /> -->

    <!-- <use
      xlink:href="#bracket"
      transform="
        translate(480, 653)
        rotate(-152.3)
      "
    /> -->
    <use
      xlink:href="#bracket"
      transform="
        translate(480, 653)
        rotate(-90)
        scale(1, -1)
      "
    />

    <g id="pickups" transform="translate(104.59)">
      <use xlink:href="#pickup" x="0" y="211" />
      <!-- <use xlink:href="#pickup" x="0" y="381.5" /> -->
      <use
        xlink:href="#pickup"
        x="99.3"
        y="514.2"
        transform="rotate(10.2)"
      />
    </g>

    <use xlink:href="#screw" x="545.75" y="42.5" />
    <use xlink:href="#screw" x="526.7" y="212" />
    <use xlink:href="#screw" x="506.7" y="479.8" />
    <use xlink:href="#screw" x="571" y="621.5" />
    <use xlink:href="#screw" x="600.5" y="779" />
    <use xlink:href="#screw" x="337.8" y="672.6" />
    <use xlink:href="#screw" x="75.05" y="668.75" />
    <use xlink:href="#screw" x="26.7" y="523.4" />
    <use xlink:href="#screw" x="73.6" y="379.1" />
    <use xlink:href="#screw" x="85.85" y="91.75" />
    <use xlink:href="#screw" x="313.9" y="181" />

  </g>

</svg>
