<svg width="1191px" height="1684px">
  <defs>
    <g id="knob">
      <circle r="36" opacity="0.5" fill="white" />
      <circle r="15" />
    </g>
    <circle id="screw" r="4" fill="blue" />
    <g id="pickup" fill="blue">
      <path
        d="M40.1968,52.581 C25.8518,52.581 14.1808,40.91 14.1808,26.565 C14.1808,12.22 25.8518,0.55 40.1968,0.55 L189.0158,0.55 C203.3608,0.55 215.0308,12.22 215.0308,26.565 C215.0308,40.91 203.3608,52.581 189.0158,52.581 L40.1968,52.581 Z" />

      <circle r="5" cx="4.5" cy="26" />
      <circle r="5" cx="225" cy="26" />
      <path
        d="M9.8162,26.168 C9.8162,29.050645 7.47884502,31.388 4.5962,31.388 C1.71355498,31.388 -0.6238,29.050645 -0.6238,26.168 C-0.6238,23.285355 1.71355498,20.948 4.5962,20.948 C7.47884502,20.948 9.8162,23.285355 9.8162,26.168 Z"
        id="screw"></path>
      <path
        d="M229.9647,26.168 C229.9647,29.050645 227.627345,31.388 224.7447,31.388 C221.862055,31.388 219.5247,29.050645 219.5247,26.168 C219.5247,23.285355 221.862055,20.948 224.7447,20.948 C227.627345,20.948 229.9647,23.285355 229.9647,26.168 Z"
        id="screw"></path>
    </g>
  </defs>
  <g id="stratocaster">
    <g id="pickguard">
      <path
        d="M573.205525,68.8061174 L573.205528,68.806137 C574.652749,79.4866476 575.300389,89.4179807 575.097159,97.4763942 C575.097,109.457777 573.565272,122.826089 570.469802,139.104595 C567.573558,154.340261 563.92634,169.117301 559.146889,184.365452 C555.083886,197.328857 550.507587,209.237272 543.263788,226.443971 C542.152984,229.082541 538.303198,238.161003 537.624342,239.769593 C531.973421,253.155978 526.772617,266.403744 521.786137,280.108035 C509.879886,312.830264 505.300393,331.86448 503.92476,356.781438 C502.968982,374.074568 503.365302,387.88534 505.943978,404.411087 C509.14158,424.895924 516.674349,447.681877 530.908427,482.371805 C534.379142,490.746085 538.395398,499.715879 543.732492,511.131881 C546.749678,517.585616 557.963483,541.190575 558.909863,543.194977 C573.018085,573.075729 583.147702,595.967684 593.445583,622.197722 C594.133825,623.950929 596.655664,630.357661 597.04289,631.342752 C598.551434,635.180447 599.771295,638.298919 600.978014,641.408717 C604.0921,649.433926 606.816743,656.632456 609.41078,663.740512 C615.142469,679.446207 619.911332,693.846274 623.778639,707.49564 C630.636231,731.698986 634.343,752.497726 634.343,769.589 C634.343,781.694683 629.793372,792.350444 622.053422,800.091471 C615.42156,806.722366 606.950706,810.589 599.411,810.589 C584.713472,810.589 570.958512,805.171508 557.699998,795.857817 C554.295132,793.466005 551.111671,790.953285 547.770077,788.097805 C546.331361,786.868383 542.06577,783.098453 541.348565,782.499284 C534.742267,776.979867 528.420119,771.591887 520.660449,764.897326 C521.143678,765.314226 506.589309,752.72598 502.831775,749.506884 C489.648274,738.212522 480.76,731.076194 471.915908,724.904397 C461.005966,717.290958 450.654679,711.606516 439.307513,707.157501 C422.202767,700.451371 401.909595,696.344122 373.407544,693.737079 C363.275915,692.809442 350.819902,692.406 334.764,692.406 C330.736042,692.406 326.732104,692.451914 322.503,692.548561 C322.503,690.27928 322.503,689.950326 322.503,684.962142 C322.503,678.76049 322.503,678.76049 322.503,671.697548 C322.503,666.923263 322.503,666.923263 322.503,662.415 C322.503,655.53668 316.929965,649.963 310.052,649.963 L119.65,649.963 C112.773374,649.963 107.199,655.538341 107.199,662.415 L107.199001,692.470353 C104.587414,692.642807 103.118782,692.689553 101.4024,692.680853 C101.167619,692.679663 101.047981,692.678689 100.521564,692.67401 C99.8781598,692.668292 99.5038313,692.666 99.038,692.666 C73.0229176,692.666 55.8314387,686.68951 39.4130365,670.592964 C12.6551449,644.360854 1.5,606.072069 1.5,558.268 C1.5,535.492586 5.56270017,511.730422 13.4239977,485.071858 C19.4457795,464.651303 25.9667173,447.093116 39.686412,412.769644 C55.6547196,372.820668 61.1575615,358.184832 67.1695467,337.816545 C75.5863989,309.300444 79.969,273.758484 79.969,241.565 C79.969,211.690558 77.9733774,187.818588 72.6878364,156.930666 C72.6300227,156.592697 72.2028328,154.016524 72.0306683,153.009029 C71.6842108,150.981583 71.3063843,148.882196 70.8389651,146.421685 C69.5882188,139.837713 67.8466434,131.475933 65.417029,120.573245 C65.3569283,120.303813 64.6811492,117.662214 64.5212038,117.024504 C63.9407706,114.710288 63.414462,112.495657 62.9140918,110.207221 C62.3141247,107.463281 61.8016616,104.833547 61.3954328,102.346593 C60.7460258,98.3708905 60.393,94.910968 60.393,92.096 C60.393,84.8452802 63.6398385,77.1972388 68.5295162,72.3085906 C72.3964702,68.4406633 78.7125693,66.123 85.409,66.123 C90.0718875,66.123 97.8612414,68.6174743 108.439523,73.1534013 C110.380242,73.9855743 112.404724,74.881978 114.551956,75.8567799 C115.457369,76.26782 132.124448,84.1250122 135.24504,85.3449121 C134.891668,110.78404 134.228,147.708709 134.228,150.043 C134.228,156.341327 136.160141,161.289133 139.678391,164.808497 C141.886407,167.015472 144.466947,168.520594 147.420351,169.300431 C161.960412,173.140451 192.686639,175.876 213.564,175.876 C235.900157,175.876 266.090311,173.292583 281.205678,169.300423 C284.120625,168.530158 286.82703,166.987081 289.008635,164.804472 C292.207181,161.605925 294.136255,157.213559 294.414737,151.976436 C297.447562,152.896781 307.590143,156.383134 315.537694,159.377885 C317.638907,160.169686 319.558715,160.911069 322.034398,161.88178 C322.242983,161.963583 322.242983,161.963583 322.451495,162.045417 C332.465557,165.976257 334.480989,166.752146 341.919648,169.465722 C358.705388,175.588955 372.019929,178.451 386.058,178.451 C397.755614,178.451 409.954621,176.392696 423.680269,172.00425 C447.122706,164.988339 466.347398,153.191611 482.632541,136.907565 C494.522124,125.017675 503.582837,111.863904 510.39958,97.2991013 C515.587838,86.2137544 519.386776,74.5617603 522.38574,61.4622748 C523.583631,56.2298818 524.634659,50.8734626 525.715971,44.6700858 C526.363858,40.9532264 528.503606,27.907248 528.284272,29.2221397 C528.802294,26.1166344 529.237385,23.6296312 529.672343,21.3226374 C531.614724,11.0145703 532.882457,7.00764957 535.647553,4.24255339 C537.478627,2.41147939 539.723204,1.5 542.548,1.5 C553.552958,1.5 569.125398,38.685767 573.205525,68.8061174 Z"
        id="shape" stroke="#000000" fill-opacity="0.5" fill="#FFFFFF"></path>
      <use xlink:href="#knob" x="560" y="735" />
      <g id="controls" transform="translate(334, 480.5101)">

        <g id="knob" transform="translate(202, 218.4899)">
          <path
            d="M51.22,36 C51.22,43.8530714 44.8530714,50.22 37,50.22 C29.1469286,50.22 22.78,43.8530714 22.78,36 C22.78,28.1469286 29.1469286,21.78 37,21.78 C44.8530714,21.78 51.22,28.1469286 51.22,36 Z"
            id="hole" stroke-width="1.44" stroke="black"></path>
          <circle id="knob" stroke-width="1.44" cx="36.8" cy="36" stroke="black" r="14" />
        </g>
        <g id="bracket" transform="translate(75.2625, 35.3537)" stroke="#000000" stroke-width="1.44">
          <g id="switches"
            transform="translate(90.8763, 51.6324) rotate(-120) translate(-90.8763, -51.6324)translate(37.3763, 40.6324)">
            <rect id="bridge" x="-0.72" y="-0.72" width="10.44" height="23.0400004" rx="5.22"></rect>
            <rect id="middle" x="48.28" y="-0.72" width="10.44" height="23.0400004" rx="5.22"></rect>
            <rect id="neck" x="97.28" y="-0.72" width="10.44" height="23.0400004" rx="5.22"></rect>
            <g id="knob"
              transform="translate(-10.4844, -49.1957) rotate(120) translate(10.4844, 49.1957)translate(-46.4844, -85.6957)">
              <path
                d="M50.22,36.4939018 C50.22,44.3469732 43.8530714,50.7139018 36,50.7139018 C28.1469286,50.7139018 21.78,44.3469732 21.78,36.4939018 C21.78,28.6408305 28.1469286,22.2739018 36,22.2739018 C43.8530714,22.2739018 50.22,28.6408305 50.22,36.4939018 Z"
                id="hole"></path>
            </g>
          </g>
          <g id="knob" transform="translate(-75.2625, 43.1362)">
            <path
              d="M50.22,36 C50.22,43.8530714 43.8530714,50.22 36,50.22 C28.1469286,50.22 21.78,43.8530714 21.78,36 C21.78,28.1469286 28.1469286,21.78 36,21.78 C43.8530714,21.78 50.22,28.1469286 50.22,36 Z"
              id="hole"></path>
          </g>
        </g>
      </g>
      <g id="pickups" transform="translate(100.0962, 211.0529)" stroke="#000000" stroke-width="1.44">
        <use xlink:href="#pickup" />

        <use xlink:href="#pickup" transform="translate(-0.0962, 169.9471)" />


        <use xlink:href="#pickup" transform="translate(6.5, 312) rotate(10)" />
        <g id="bridge" transform="translate(0.9038, 317.9471)">
          <path
            d="M187.2529,78.8808 C185.7229,78.8808 184.1769,78.7438 182.6579,78.4728 L36.1479,52.3648 C22.0249,49.8488 12.5839,36.3118 15.0999,22.1888 C17.3149,9.7568 28.0739,0.7338 40.6809,0.7338 C42.2109,0.7338 43.7569,0.8698 45.2749,1.1418 L191.7869,27.2488 C205.9089,29.7658 215.3519,43.3028 212.8339,57.4258 C210.6189,69.8578 199.8609,78.8808 187.2529,78.8808 Z"
            id="pickup"></path>
          <path
            d="M223.425687,54.1376435 C226.263233,54.6431056 228.153849,57.3539345 227.64835,60.1916872 C227.142888,63.0292331 224.432059,64.9198487 221.594072,64.4143081 C218.75648,63.9078714 216.86619,61.1978071 217.371685,58.3600722 C217.878122,55.5224804 220.588186,53.6321895 223.425687,54.1376435 Z"
            id="screw"></path>
          <path
            d="M6.30558717,15.1048435 C9.14333886,15.6103422 11.0336907,18.320494 10.5282499,21.1588872 C10.0227505,23.9966427 7.31167488,25.8871314 4.47420623,25.3807167 C1.63656663,24.875238 -0.253938609,22.1651651 0.25158526,19.3272722 C0.758021957,16.4896804 3.46808634,14.5993895 6.30558717,15.1048435 Z"
            id="screw"></path>
        </g>
      </g>
      <g id="screws" transform="translate(22, 37)" stroke="#000000" stroke-width="1.44">
        <path
          d="M297.1061,144.0255 C297.1061,146.908145 294.768745,149.2455 291.8861,149.2455 C289.003455,149.2455 286.6661,146.908145 286.6661,144.0255 C286.6661,141.142855 289.003455,138.8055 291.8861,138.8055 C294.768745,138.8055 297.1061,141.142855 297.1061,144.0255 Z"
          id="countersunk">
        </path>
        <path
          d="M528.270898,2.83973068 L528.27106,2.8400106 C529.202847,4.45517231 529.202847,6.44442769 528.270898,8.05986932 C527.338184,9.67496272 525.61476,10.6698 523.7499,10.6698 C521.88504,10.6698 520.161616,9.67496272 519.22874,8.0595894 C518.296953,6.44442769 518.296953,4.45517231 519.228902,2.83973068 C520.161616,1.22463728 521.88504,0.2298 523.7499,0.2298 C525.61476,0.2298 527.338184,1.22463728 528.270898,2.83973068 Z"
          id="countersunk"></path>
        <path
          d="M509.824,175.1281 C509.824,178.010745 507.486645,180.3481 504.604,180.3481 C501.721355,180.3481 499.384,178.010745 499.384,175.1281 C499.384,172.245455 501.721355,169.9081 504.604,169.9081 C507.486645,169.9081 509.824,172.245455 509.824,175.1281 Z"
          id="countersunk"></path>
        <path
          d="M489.8534,442.8207 C489.8534,445.703345 487.516045,448.0407 484.6334,448.0407 C481.750755,448.0407 479.4134,445.703345 479.4134,442.8207 C479.4134,439.938055 481.750755,437.6007 484.6334,437.6007 C487.516045,437.6007 489.8534,439.938055 489.8534,442.8207 Z"
          id="countersunk"></path>
        <path
          d="M554.1128,584.5361 C554.1128,587.418745 551.775445,589.7561 548.8928,589.7561 C546.010155,589.7561 543.6728,587.418745 543.6728,584.5361 C543.6728,581.653455 546.010155,579.3161 548.8928,579.3161 C551.775445,579.3161 554.1128,581.653455 554.1128,584.5361 Z"
          id="countersunk"></path>
        <path
          d="M583.6536,741.9405 C583.6536,744.823145 581.316245,747.1605 578.4336,747.1605 C575.550955,747.1605 573.2136,744.823145 573.2136,741.9405 C573.2136,739.057855 575.550955,736.7205 578.4336,736.7205 C581.316245,736.7205 583.6536,739.057855 583.6536,741.9405 Z"
          id="countersunk"></path>
        <path
          d="M320.9446,635.6653 C320.9446,638.547945 318.607245,640.8853 315.7246,640.8853 C312.841955,640.8853 310.5046,638.547945 310.5046,635.6653 C310.5046,632.782655 312.841955,630.4453 315.7246,630.4453 C318.607245,630.4453 320.9446,632.782655 320.9446,635.6653 Z"
          id="countersunk"></path>
        <path
          d="M58.2254,631.7744 C58.2254,634.657045 55.888045,636.9944 53.0054,636.9944 C50.122755,636.9944 47.7854,634.657045 47.7854,631.7744 C47.7854,628.891755 50.122755,626.5544 53.0054,626.5544 C55.888045,626.5544 58.2254,628.891755 58.2254,631.7744 Z"
          id="countersunk"></path>
        <path
          d="M9.8739,486.3885 C9.8739,489.271145 7.53654502,491.6085 4.6539,491.6085 C1.77125498,491.6085 -0.5661,489.271145 -0.5661,486.3885 C-0.5661,483.505855 1.77125498,481.1685 4.6539,481.1685 C7.53654502,481.1685 9.8739,483.505855 9.8739,486.3885 Z"
          id="countersunk"></path>
        <path
          d="M56.8739,342.1077 C56.8739,344.990345 54.536545,347.3277 51.6539,347.3277 C48.771255,347.3277 46.4339,344.990345 46.4339,342.1077 C46.4339,339.225055 48.771255,336.8877 51.6539,336.8877 C54.536545,336.8877 56.8739,339.225055 56.8739,342.1077 Z"
          id="countersunk"></path>
        <path
          d="M69.025,54.7565 C69.025,57.639145 66.687645,59.9765 63.805,59.9765 C60.922355,59.9765 58.585,57.639145 58.585,54.7565 C58.585,51.873855 60.922355,49.5365 63.805,49.5365 C66.687645,49.5365 69.025,51.873855 69.025,54.7565 Z"
          id="countersunk"></path>
      </g>
    </g>
  </g>

</svg>
